<svg width="430" height="430" viewBox="0 0 430 430" fill="none" xmlns="http://www.w3.org/2000/svg">
<path d="M312.607 30V102.679H261.536C250.49 102.679 241.536 111.633 241.536 122.679V175.357H319.214L299.393 248.036H241.536V400H168.857L168.857 248.036H111V175.357H168.857L168.857 100C168.857 61.3401 200.197 30 238.857 30H312.607Z" fill="#4BB3FD"/>
<g style="mix-blend-mode:multiply" opacity="0.4">
<path d="M203.857 400V248.036H168.857L168.857 400H203.857Z" fill="#4BB3FD"/>
<path d="M146 248.036V175.357H111V248.036H146Z" fill="#4BB3FD"/>
<path d="M168.857 175.357H203.857L203.857 100C203.857 61.3401 235.197 30 273.857 30H238.857C200.197 30 168.857 61.3401 168.857 100L168.857 175.357Z" fill="#4BB3FD"/>
</g>
<path d="M312.607 30V102.679H261.536C250.49 102.679 241.536 111.633 241.536 122.679V175.357H319.214L299.393 248.036H241.536V400H168.857L168.857 248.036H111V175.357H168.857L168.857 100C168.857 61.3401 200.197 30 238.857 30H312.607Z" stroke="#121331" stroke-width="7" stroke-linejoin="round"/>
</svg>
