<svg width="430" height="430" viewBox="0 0 430 430" fill="none" xmlns="http://www.w3.org/2000/svg">
<path fill-rule="evenodd" clip-rule="evenodd" d="M236.082 179.776L366.858 49H395.282L389.142 55L248.204 195.938L387 381H292L193.918 250.224L63.1422 381H34.6632L40.8578 375L181.796 234.062L43 49H138L236.082 179.776ZM83 69L302 361H347L128 69H83Z" fill="#3A3347"/>
<g style="mix-blend-mode:multiply" opacity="0.5">
<path d="M292 381L193.918 250.224L63.1422 381H34.6632L40.8578 375L181.796 234.062L43 49H90.5L105.5 69H83L302 361H324.5L339.5 381H292Z" fill="#3A3347"/>
</g>
<path fill-rule="evenodd" clip-rule="evenodd" d="M236.082 179.776L366.858 49H395.282L389.142 55L248.204 195.938L387 381H292L193.918 250.224L63.1422 381H34.6632L40.8578 375L181.796 234.062L43 49H138L236.082 179.776ZM83 69L302 361H347L128 69H83Z" stroke="#121331" stroke-width="7" stroke-linecap="square" stroke-linejoin="round"/>
</svg>
